<?xml version="1.0" encoding="UTF-8" standalone="no"?><svg width="81" height="81" viewBox="0 0 81 81" fill="none" xmlns="http://www.w3.org/2000/svg">
<g style="mix-blend-mode:darken">
<circle cx="40.3504" cy="40.6925" r="40.0433" fill="#CBF3F0" fill-opacity="0.2"/>
<path d="M26.4153 55.1083C25.7746 55.1083 25.214 54.868 24.7335 54.3875C24.253 53.907 24.0127 53.3464 24.0127 52.7057V28.6797C24.0127 28.039 24.253 27.4784 24.7335 26.9979C25.214 26.5174 25.7746 26.2771 26.4153 26.2771H54.2854C54.9261 26.2771 55.4867 26.5174 55.9672 26.9979C56.4478 27.4784 56.688 28.039 56.688 28.6797V52.7057C56.688 53.3464 56.4478 53.907 55.9672 54.3875C55.4867 54.868 54.9261 55.1083 54.2854 55.1083H26.4153ZM26.4153 52.7057H54.2854V28.6797H26.4153V52.7057ZM29.1382 48.7013H37.1469V45.4979H29.1382V48.7013ZM44.4348 45.4979L52.3633 37.5693L50.0809 35.2868L44.4348 40.973L42.1523 38.6905L39.9099 40.973L44.4348 45.4979ZM29.1382 42.2944H37.1469V39.091H29.1382V42.2944ZM29.1382 35.8875H37.1469V32.684H29.1382V35.8875Z" fill="#2EC4B6"/>
</g>
</svg>
