<?xml version="1.0" encoding="UTF-8" standalone="no"?><svg width="56" height="56" viewBox="0 0 56 56" fill="none" xmlns="http://www.w3.org/2000/svg">
<path opacity="0.3" d="M45.1613 0H10.8387C4.85266 0 0 4.85266 0 10.8387V45.1613C0 51.1473 4.85266 56 10.8387 56H45.1613C51.1473 56 56 51.1473 56 45.1613V10.8387C56 4.85266 51.1473 0 45.1613 0Z" fill="url(#paint0_linear_416_10889)"/>
<path fill-rule="evenodd" clip-rule="evenodd" d="M28.3933 17.0966C28.691 17.0966 28.932 16.8554 28.932 16.5579V13.358C28.932 13.0605 28.691 12.8193 28.3933 12.8193C28.0958 12.8193 27.8546 13.0605 27.8546 13.358V16.5579C27.8546 16.8554 28.0958 17.0966 28.3933 17.0966ZM43.1347 27.5884H39.9725C39.675 27.5884 39.4338 27.8297 39.4338 28.1272C39.4338 28.4249 39.675 28.6659 39.9725 28.6659H43.1347C43.4322 28.6659 43.6734 28.4249 43.6734 28.1272C43.6734 27.8297 43.4322 27.5884 43.1347 27.5884ZM13.6495 27.5885H16.8118C17.1093 27.5885 17.3505 27.8297 17.3505 28.1272C17.3505 28.425 17.1093 28.6659 16.8118 28.6659H13.6495C13.3521 28.6659 13.1108 28.425 13.1108 28.1272C13.1108 27.8297 13.3521 27.5885 13.6495 27.5885ZM38.2958 17.2813L36.0864 19.4908C35.8759 19.7012 35.8759 20.0422 36.0864 20.2525C36.2967 20.463 36.638 20.463 36.8483 20.2525L39.0576 18.0433C39.2681 17.8329 39.2681 17.4917 39.0576 17.2813C38.8472 17.0711 38.5063 17.0711 38.2958 17.2813ZM20.8143 20.0781C20.7309 20.2793 20.5345 20.4106 20.3163 20.4106C20.1735 20.4109 20.0362 20.354 19.9353 20.2527L17.726 18.0435C17.5155 17.8331 17.5155 17.4919 17.726 17.2815C17.9364 17.071 18.2776 17.071 18.488 17.2815L20.6975 19.491C20.8517 19.6448 20.8976 19.8766 20.8143 20.0781Z" fill="url(#paint1_linear_416_10889)"/>
<path fill-rule="evenodd" clip-rule="evenodd" d="M24.809 38.1034H31.9709V38.104H31.9712V35.6806L32.0473 35.6422C35.447 33.9456 37.2336 30.1334 36.3619 26.4351C35.4904 22.7368 32.1898 20.1235 28.3899 20.1235C24.5904 20.1235 21.2898 22.7368 20.4183 26.4351C19.5466 30.1334 21.3332 33.9456 24.7329 35.6422L24.809 35.6806V38.1034ZM27.1381 43.9514H29.6417C30.2559 43.9561 30.8464 43.7149 31.2815 43.2817C31.7169 42.8485 31.9606 42.2592 31.9588 41.6451V40.9212H24.821V41.6451C24.8195 42.2592 25.0633 42.8485 25.4986 43.2817C25.9337 43.7149 26.5242 43.9561 27.1381 43.9514ZM29.9922 30.5867C29.9922 31.282 29.5488 31.8738 28.9291 32.0944V38.0929H27.8517V32.0932C27.2341 31.8714 26.7924 31.2805 26.7924 30.5867C26.7924 29.7031 27.5086 28.9869 28.3922 28.9869C29.276 28.9869 29.9922 29.7031 29.9922 30.5867Z" fill="url(#paint2_linear_416_10889)"/>
<path opacity="0.3" fill-rule="evenodd" clip-rule="evenodd" d="M28.9297 32.0944C29.5498 31.8739 29.9937 31.2819 29.9937 30.5864C29.9937 29.7028 29.2775 28.9866 28.3936 28.9866C27.5101 28.9866 26.7939 29.7028 26.7939 30.5864C26.7939 31.28 27.2352 31.8706 27.8523 32.0925V38.0924H28.9297V32.0944ZM31.9728 38.1036V40.898H24.8105V38.1036H31.9728Z" fill="#D75F66"/>
<defs>
<linearGradient id="paint0_linear_416_10889" x1="-17.8832" y1="-10.3212" x2="61.6204" y2="57.4306" gradientUnits="userSpaceOnUse">
<stop stop-color="#C01D62"/>
<stop offset="1" stop-color="#F4B56B"/>
</linearGradient>
<linearGradient id="paint1_linear_416_10889" x1="2.14627" y1="9.69237" x2="20.7051" y2="43.3101" gradientUnits="userSpaceOnUse">
<stop stop-color="#C01D62"/>
<stop offset="1" stop-color="#F4B56B"/>
</linearGradient>
<linearGradient id="paint2_linear_416_10889" x1="14.3219" y1="15.4217" x2="44.3785" y2="34.8298" gradientUnits="userSpaceOnUse">
<stop stop-color="#C01D62"/>
<stop offset="1" stop-color="#F4B56B"/>
</linearGradient>
</defs>
</svg>
