<?xml version="1.0" encoding="UTF-8" standalone="no"?><svg width="81" height="81" viewBox="0 0 81 81" fill="none" xmlns="http://www.w3.org/2000/svg">
<g style="mix-blend-mode:darken">
<circle cx="40.0433" cy="40.0433" r="40.0433" fill="#CBF3F0" fill-opacity="0.2"/>
<path d="M38.3782 49.2294L47.5477 40.0599L45.9861 38.4982L38.3782 46.1062L34.2539 41.9819L32.6922 43.5435L38.3782 49.2294ZM29.8092 56.2367C29.1686 56.2367 28.608 55.9965 28.1275 55.516C27.647 55.0355 27.4067 54.4749 27.4067 53.8342V26.6059C27.4067 25.9652 27.647 25.4046 28.1275 24.9241C28.608 24.4436 29.1686 24.2034 29.8092 24.2034H44.2643L53.0334 32.9725V53.8342C53.0334 54.4749 52.7932 55.0355 52.3127 55.516C51.8322 55.9965 51.2716 56.2367 50.6309 56.2367H29.8092ZM43.063 34.0536V26.6059H29.8092V53.8342H50.6309V34.0536H43.063Z" fill="#2EC4B6"/>
</g>
</svg>
