<?xml version="1.0" encoding="UTF-8" standalone="no"?><svg width="81" height="81" viewBox="0 0 81 81" fill="none" xmlns="http://www.w3.org/2000/svg">
<g style="mix-blend-mode:darken">
<circle cx="40.6751" cy="40.0433" r="40.0433" fill="#CBF3F0" fill-opacity="0.2"/>
<path d="M51.071 35.5752L44.8646 29.3687L47.6675 26.5658C48.1213 26.112 48.6819 25.8851 49.3493 25.8851C50.0166 25.8851 50.5772 26.112 51.031 26.5658L53.874 29.4088C54.3278 29.8626 54.5547 30.4231 54.5547 31.0905C54.5547 31.7579 54.3278 32.3184 53.874 32.7723L51.071 35.5752ZM25.8048 54.635V48.3885L33.5728 40.6204L24.7236 31.7312L31.6909 24.6838L40.6202 33.6131L44.8646 29.3687L51.071 35.5752L46.8266 39.8196L55.7559 48.7489L48.7486 55.6761L39.8594 46.8269L32.0513 54.635H25.8048ZM35.2946 38.8986L38.8984 35.2949L35.9753 32.3718L34.0533 34.2938L32.3716 32.6121L34.2936 30.6901L31.7309 28.1274L28.1272 31.7312L35.2946 38.8986ZM48.6685 52.3126L52.2723 48.7088L49.7096 46.1462L47.7876 48.0682L46.1059 46.3864L48.0279 44.4644L45.1048 41.5414L41.5011 45.1451L48.6685 52.3126ZM28.2073 52.2325H31.0102L47.6275 35.6152L44.8246 32.8123L28.2073 49.4296V52.2325Z" fill="#2EC4B6"/>
</g>
</svg>
