<?xml version="1.0" encoding="UTF-8" standalone="no"?><svg width="81" height="81" viewBox="0 0 81 81" fill="none" xmlns="http://www.w3.org/2000/svg">
<g style="mix-blend-mode:darken">
<circle cx="40.6751" cy="40.0433" r="40.0433" fill="#CBF3F0" fill-opacity="0.2"/>
<path d="M40.675 56.0608C38.4326 56.0608 36.337 55.6403 34.3882 54.7994C32.4395 53.9585 30.7443 52.8172 29.3027 51.3757C27.8612 49.9341 26.7266 48.2323 25.8991 46.2702C25.0715 44.308 24.6577 42.2058 24.6577 39.9634C24.6577 37.7209 25.0715 35.632 25.8991 33.6966C26.7266 31.7612 27.8612 30.0727 29.3027 28.6311C30.7443 27.1895 32.4395 26.0617 34.3882 25.2474C36.337 24.4332 38.4326 24.0261 40.675 24.0261C42.9175 24.0261 45.0131 24.4332 46.9618 25.2474C48.9106 26.0617 50.6058 27.1895 52.0473 28.6311C53.4889 30.0727 54.6234 31.7612 55.451 33.6966C56.2786 35.632 56.6923 37.7209 56.6923 39.9634C56.6923 42.2058 56.2786 44.308 55.451 46.2702C54.6234 48.2323 53.4889 49.9341 52.0473 51.3757C50.6058 52.8172 48.9106 53.9585 46.9618 54.7994C45.0131 55.6403 42.9175 56.0608 40.675 56.0608ZM40.675 53.7382C41.6094 52.7772 42.3902 51.676 43.0176 50.4347C43.6449 49.1933 44.1588 47.7184 44.5592 46.0099H36.8309C37.2046 47.6116 37.7052 49.0532 38.3325 50.3346C38.9598 51.6159 39.7407 52.7505 40.675 53.7382ZM37.2714 53.2577C36.604 52.2433 36.03 51.1488 35.5495 49.9742C35.069 48.7996 34.6685 47.4781 34.3482 46.0099H28.3417C29.3561 47.9053 30.5307 49.3935 31.8655 50.4747C33.2003 51.5559 35.0022 52.4836 37.2714 53.2577ZM44.1188 53.2177C46.0408 52.6037 47.7694 51.6827 49.3044 50.4547C50.8394 49.2267 52.074 47.7451 53.0084 46.0099H47.0419C46.6949 47.4514 46.2878 48.7595 45.8206 49.9341C45.3534 51.1087 44.7861 52.2033 44.1188 53.2177ZM27.5408 43.6073H33.9077C33.8276 42.8865 33.7809 42.2391 33.7676 41.6652C33.7542 41.0912 33.7475 40.524 33.7475 39.9634C33.7475 39.296 33.7609 38.702 33.7876 38.1814C33.8143 37.6609 33.8677 37.0802 33.9478 36.4395H27.5408C27.354 37.0802 27.2272 37.6542 27.1604 38.1614C27.0937 38.6686 27.0603 39.2693 27.0603 39.9634C27.0603 40.6574 27.0937 41.2781 27.1604 41.8254C27.2272 42.3726 27.354 42.9666 27.5408 43.6073ZM36.3904 43.6073H44.9997C45.1065 42.7797 45.1732 42.1057 45.1999 41.5851C45.2266 41.0645 45.24 40.524 45.24 39.9634C45.24 39.4294 45.2266 38.9156 45.1999 38.4217C45.1732 37.9278 45.1065 37.2671 44.9997 36.4395H36.3904C36.2836 37.2671 36.2169 37.9278 36.1902 38.4217C36.1635 38.9156 36.1501 39.4294 36.1501 39.9634C36.1501 40.524 36.1635 41.0645 36.1902 41.5851C36.2169 42.1057 36.2836 42.7797 36.3904 43.6073ZM47.4023 43.6073H53.8092C53.9961 42.9666 54.1229 42.3726 54.1896 41.8254C54.2564 41.2781 54.2897 40.6574 54.2897 39.9634C54.2897 39.2693 54.2564 38.6686 54.1896 38.1614C54.1229 37.6542 53.9961 37.0802 53.8092 36.4395H47.4423C47.5224 37.3739 47.5758 38.088 47.6025 38.5819C47.6292 39.0757 47.6426 39.5362 47.6426 39.9634C47.6426 40.5507 47.6225 41.1046 47.5825 41.6251C47.5425 42.1457 47.4824 42.8064 47.4023 43.6073ZM47.0019 34.0369H53.0084C52.1274 32.195 50.9194 30.66 49.3844 29.432C47.8495 28.204 46.0809 27.3364 44.0787 26.8292C44.7461 27.8169 45.3134 28.8847 45.7805 30.0326C46.2477 31.1805 46.6548 32.5153 47.0019 34.0369ZM36.8309 34.0369H44.5993C44.3056 32.6221 43.8118 31.2539 43.1177 29.9325C42.4236 28.6111 41.6094 27.4432 40.675 26.4287C39.8208 27.1495 39.1 28.0972 38.5127 29.2718C37.9254 30.4464 37.3648 32.0348 36.8309 34.0369ZM28.3417 34.0369H34.3882C34.6819 32.5954 35.0556 31.3073 35.5094 30.1728C35.9633 29.0382 36.5372 27.937 37.2313 26.8692C35.2291 27.3764 33.4806 28.2307 31.9856 29.432C30.4907 30.6333 29.276 32.1683 28.3417 34.0369Z" fill="#2EC4B6"/>
</g>
</svg>
