<?xml version="1.0" encoding="UTF-8" standalone="no"?><svg width="81" height="81" viewBox="0 0 81 81" fill="none" xmlns="http://www.w3.org/2000/svg">
<g style="mix-blend-mode:darken">
<circle cx="40.0433" cy="40.0433" r="40.0433" fill="#CBF3F0" fill-opacity="0.2"/>
<path d="M30.873 52.8572C28.5238 52.8572 26.5283 52.0363 24.8865 50.3945C23.2447 48.7528 22.4238 46.7573 22.4238 44.4081C22.4238 42.3258 23.0912 40.4972 24.426 38.9221C25.7608 37.3471 27.4559 36.3994 29.5115 36.0791C30.0454 33.4896 31.3001 31.374 33.2756 29.7322C35.251 28.0904 37.5335 27.2695 40.123 27.2695C43.1129 27.2695 45.6356 28.3574 47.6911 30.5331C49.7467 32.7087 50.7745 35.3182 50.7745 38.3615V39.3226C52.6966 39.2692 54.325 39.8898 55.6598 41.1846C56.9945 42.4793 57.6619 44.1144 57.6619 46.0899C57.6619 47.9319 56.9945 49.5203 55.6598 50.855C54.325 52.1898 52.7366 52.8572 50.8946 52.8572H30.873ZM30.873 50.4546H50.8946C52.0959 50.4546 53.1237 50.0275 53.9779 49.1732C54.8322 48.319 55.2593 47.2912 55.2593 46.0899C55.2593 44.8886 54.8322 43.8608 53.9779 43.0065C53.1237 42.1523 52.0959 41.7252 50.8946 41.7252H48.3719V38.3615C48.3719 35.9322 47.5577 33.8767 45.9292 32.1949C44.3008 30.513 42.312 29.6721 39.9628 29.6721C37.6136 29.6721 35.6181 30.513 33.9763 32.1949C32.3345 33.8767 31.5137 35.9322 31.5137 38.3615H30.7528C29.0977 38.3615 27.6962 38.9422 26.5483 40.1034C25.4004 41.2647 24.8264 42.6995 24.8264 44.4081C24.8264 46.0899 25.4137 47.5181 26.5883 48.6927C27.7629 49.8673 29.1911 50.4546 30.873 50.4546Z" fill="#2EC4B6"/>
</g>
</svg>
