<?xml version="1.0" encoding="UTF-8" standalone="no"?><svg width="81" height="81" viewBox="0 0 81 81" fill="none" xmlns="http://www.w3.org/2000/svg">
<g style="mix-blend-mode:darken">
<circle cx="40.9569" cy="40.6925" r="40.0433" fill="#CBF3F0" fill-opacity="0.2"/>
<path d="M37.7533 40.4925C35.9914 40.4925 34.5498 39.9319 33.4286 38.8107C32.3074 37.6894 31.7468 36.2479 31.7468 34.486C31.7468 32.7241 32.3074 31.2825 33.4286 30.1613C34.5498 29.0401 35.9914 28.4795 37.7533 28.4795C39.5152 28.4795 40.9568 29.0401 42.078 30.1613C43.1992 31.2825 43.7598 32.7241 43.7598 34.486C43.7598 36.2479 43.1992 37.6894 42.078 38.8107C40.9568 39.9319 39.5152 40.4925 37.7533 40.4925ZM24.9395 53.3464V49.5823C24.9395 48.648 25.173 47.8071 25.6402 47.0596C26.1074 46.3121 26.7814 45.7382 27.6624 45.3377C29.5845 44.4835 31.3664 43.8695 33.0082 43.4957C34.65 43.122 36.2317 42.9351 37.7533 42.9351H38.6743C38.5141 43.3089 38.394 43.6759 38.3139 44.0363C38.2338 44.3967 38.1671 44.8305 38.1137 45.3377H37.7533C36.205 45.3377 34.69 45.5046 33.2084 45.8383C31.7268 46.172 30.1985 46.7259 28.6234 47.5001C28.1963 47.7136 27.876 48.0139 27.6624 48.401C27.4488 48.7881 27.3421 49.1819 27.3421 49.5823V50.9438H38.1137C38.2472 51.4243 38.4073 51.8581 38.5942 52.2452C38.7811 52.6323 39.008 52.9993 39.275 53.3464H24.9395ZM48.4449 55.1083L48.0444 52.4654C47.5906 52.3319 47.1301 52.1384 46.6629 51.8848C46.1958 51.6312 45.802 51.3442 45.4817 51.0239L43.2793 51.5044L42.2782 49.8226L44.1602 48.0607C44.1068 47.8204 44.0801 47.4867 44.0801 47.0596C44.0801 46.6325 44.1068 46.2988 44.1602 46.0585L42.2782 44.2966L43.2793 42.6148L45.4817 43.0953C45.802 42.7749 46.1958 42.488 46.6629 42.2344C47.1301 41.9808 47.5906 41.7872 48.0444 41.6537L48.4449 39.0109H50.6072L51.0076 41.6537C51.4615 41.7872 51.922 41.9808 52.3891 42.2344C52.8563 42.488 53.2501 42.7749 53.5704 43.0953L55.7728 42.6148L56.7739 44.2966L54.8918 46.0585C54.9452 46.2988 54.9719 46.6325 54.9719 47.0596C54.9719 47.4867 54.9452 47.8204 54.8918 48.0607L56.7739 49.8226L55.7728 51.5044L53.5704 51.0239C53.2501 51.3442 52.8563 51.6312 52.3891 51.8848C51.922 52.1384 51.4615 52.3319 51.0076 52.4654L50.6072 55.1083H48.4449ZM49.526 50.263C50.4871 50.263 51.2612 49.9694 51.8485 49.3821C52.4358 48.7948 52.7295 48.0206 52.7295 47.0596C52.7295 46.0985 52.4358 45.3244 51.8485 44.7371C51.2612 44.1498 50.4871 43.8561 49.526 43.8561C48.565 43.8561 47.7908 44.1498 47.2035 44.7371C46.6162 45.3244 46.3226 46.0985 46.3226 47.0596C46.3226 48.0206 46.6162 48.7948 47.2035 49.3821C47.7908 49.9694 48.565 50.263 49.526 50.263ZM37.7533 38.0899C38.7944 38.0899 39.6554 37.7495 40.3361 37.0688C41.0168 36.388 41.3572 35.5271 41.3572 34.486C41.3572 33.4449 41.0168 32.5839 40.3361 31.9032C39.6554 31.2225 38.7944 30.8821 37.7533 30.8821C36.7122 30.8821 35.8512 31.2225 35.1705 31.9032C34.4898 32.5839 34.1494 33.4449 34.1494 34.486C34.1494 35.5271 34.4898 36.388 35.1705 37.0688C35.8512 37.7495 36.7122 38.0899 37.7533 38.0899Z" fill="#2EC4B6"/>
</g>
</svg>
