<?xml version="1.0" encoding="UTF-8" standalone="no"?><svg width="81" height="81" viewBox="0 0 81 81" fill="none" xmlns="http://www.w3.org/2000/svg">
<g style="mix-blend-mode:darken">
<circle cx="40.6751" cy="40.0433" r="40.0433" fill="#CBF3F0" fill-opacity="0.2"/>
<path d="M34.8287 54.4589V52.0563H38.2724V48.0519H27.0603C26.4196 48.0519 25.859 47.8117 25.3785 47.3311C24.898 46.8506 24.6577 46.29 24.6577 45.6493V28.0303C24.6577 27.3896 24.898 26.829 25.3785 26.3485C25.859 25.8679 26.4196 25.6277 27.0603 25.6277H54.2897C54.9304 25.6277 55.491 25.8679 55.9716 26.3485C56.4521 26.829 56.6923 27.3896 56.6923 28.0303V45.6493C56.6923 46.29 56.4521 46.8506 55.9716 47.3311C55.491 47.8117 54.9304 48.0519 54.2897 48.0519H43.0776V52.0563H46.5213V54.4589H34.8287ZM27.0603 45.6493H54.2897V28.0303H27.0603V45.6493Z" fill="#2EC4B6"/>
</g>
</svg>
