<?xml version="1.0" encoding="UTF-8" standalone="no"?><svg width="81" height="81" viewBox="0 0 81 81" fill="none" xmlns="http://www.w3.org/2000/svg">
<g style="mix-blend-mode:darken">
<circle cx="40.6751" cy="40.0433" r="40.0433" fill="#CBF3F0" fill-opacity="0.2"/>
<path d="M31.8655 57.6624C31.2248 57.6624 30.6642 57.4221 30.1837 56.9416C29.7032 56.4611 29.4629 55.9005 29.4629 55.2598V24.8269C29.4629 24.1862 29.7032 23.6256 30.1837 23.1451C30.6642 22.6646 31.2248 22.4243 31.8655 22.4243H49.4845C50.1252 22.4243 50.6858 22.6646 51.1664 23.1451C51.6469 23.6256 51.8871 24.1862 51.8871 24.8269V55.2598C51.8871 55.9005 51.6469 56.4611 51.1664 56.9416C50.6858 57.4221 50.1252 57.6624 49.4845 57.6624H31.8655ZM31.8655 51.6559V55.2598H49.4845V51.6559H31.8655ZM40.675 54.6592C41.0221 54.6592 41.309 54.5457 41.5359 54.3188C41.7629 54.0919 41.8763 53.8049 41.8763 53.4579C41.8763 53.1108 41.7629 52.8238 41.5359 52.5969C41.309 52.37 41.0221 52.2566 40.675 52.2566C40.328 52.2566 40.041 52.37 39.8141 52.5969C39.5872 52.8238 39.4737 53.1108 39.4737 53.4579C39.4737 53.8049 39.5872 54.0919 39.8141 54.3188C40.041 54.5457 40.328 54.6592 40.675 54.6592ZM31.8655 49.2533H49.4845V28.4308H31.8655V49.2533ZM31.8655 26.0282H49.4845V24.8269H31.8655V26.0282Z" fill="#2EC4B6"/>
</g>
</svg>
