<?xml version="1.0" encoding="UTF-8" standalone="no"?><svg width="50" height="50" viewBox="0 0 50 50" fill="none" xmlns="http://www.w3.org/2000/svg">
<g style="mix-blend-mode:darken">
<circle cx="25" cy="25" r="25" fill="#CBF3F0" fill-opacity="0.2"/>
<path d="M25.5 32.833H34.875" stroke="#2EC4B6" stroke-width="2" stroke-linecap="round" stroke-linejoin="round"/>
<path d="M30.1875 15.6462C30.6019 15.2318 31.1639 14.999 31.75 14.999C32.0402 14.999 32.3275 15.0562 32.5956 15.1672C32.8637 15.2783 33.1073 15.441 33.3125 15.6462C33.5177 15.8514 33.6805 16.095 33.7915 16.3631C33.9026 16.6312 33.9597 16.9185 33.9597 17.2087C33.9597 17.4989 33.9026 17.7863 33.7915 18.0544C33.6805 18.3224 33.5177 18.566 33.3125 18.7712L20.2917 31.7921L16.125 32.8337L17.1667 28.6671L30.1875 15.6462Z" stroke="#2EC4B6" stroke-width="2" stroke-linecap="round" stroke-linejoin="round"/>
</g>
</svg>
