<?xml version="1.0" encoding="UTF-8" standalone="no"?><svg width="62" height="56" viewBox="0 0 62 56" fill="none" xmlns="http://www.w3.org/2000/svg">
<path opacity="0.1" d="M50 0H12C5.37258 0 0 4.85266 0 10.8387V45.1613C0 51.1473 5.37258 56 12 56H50C56.6274 56 62 51.1473 62 45.1613V10.8387C62 4.85266 56.6274 0 50 0Z" fill="url(#paint0_linear_416_10927)"/>
<path opacity="0.4" d="M25.57 35.031H39.1197V41.2051H23.7949V35.031H25.57Z" fill="url(#paint1_linear_416_10927)"/>
<path opacity="0.2" d="M30.833 12.0105H32.0799V22.8069H30.833V12.0105Z" fill="url(#paint2_linear_416_10927)"/>
<path opacity="0.2" d="M34.1054 24.6325C34.1054 25.952 32.9212 27.0217 31.4606 27.0217C29.9996 27.0217 28.8154 25.952 28.8154 24.6325C28.8154 23.3133 29.9996 22.2437 31.4606 22.2437C32.9212 22.2437 34.1054 23.3133 34.1054 24.6325Z" fill="url(#paint3_linear_416_10927)"/>
<path d="M31.4624 11.9038L39.9811 26.441L37.5457 35.0034V35.0308H25.5751L22.9434 26.441L31.4624 11.9038Z" fill="url(#paint4_linear_416_10927)"/>
<path d="M30.833 12.0105H32.0799V22.8069H30.833V12.0105Z" fill="#1E2C3D"/>
<path d="M34.1054 24.6325C34.1054 25.952 32.9212 27.0217 31.4606 27.0217C29.9996 27.0217 28.8154 25.952 28.8154 24.6325C28.8154 23.3133 29.9996 22.2437 31.4606 22.2437C32.9212 22.2437 34.1054 23.3133 34.1054 24.6325Z" fill="#1E2C3D"/>
<defs>
<linearGradient id="paint0_linear_416_10927" x1="-6.5" y1="-11.5" x2="60.6035" y2="64.1858" gradientUnits="userSpaceOnUse">
<stop stop-color="#00F4F4"/>
<stop offset="1" stop-color="#A4AEAE"/>
</linearGradient>
<linearGradient id="paint1_linear_416_10927" x1="20.418" y1="35.1135" x2="29.7656" y2="56.6807" gradientUnits="userSpaceOnUse">
<stop stop-color="#A3ECEC"/>
<stop offset="1" stop-color="#E5E5E5"/>
</linearGradient>
<linearGradient id="paint2_linear_416_10927" x1="30.5582" y1="12.1547" x2="35.3129" y2="12.6652" gradientUnits="userSpaceOnUse">
<stop stop-color="#A3ECEC"/>
<stop offset="1" stop-color="#E5E5E5"/>
</linearGradient>
<linearGradient id="paint3_linear_416_10927" x1="27.6497" y1="22.3074" x2="37.5586" y2="32.5053" gradientUnits="userSpaceOnUse">
<stop stop-color="#A3ECEC"/>
<stop offset="1" stop-color="#E5E5E5"/>
</linearGradient>
<linearGradient id="paint4_linear_416_10927" x1="19.189" y1="12.2128" x2="63.9253" y2="42.8487" gradientUnits="userSpaceOnUse">
<stop stop-color="#A3ECEC"/>
<stop offset="1" stop-color="#E5E5E5"/>
</linearGradient>
</defs>
</svg>
