<?xml version="1.0" encoding="UTF-8" standalone="no"?><svg width="81" height="81" viewBox="0 0 81 81" fill="none" xmlns="http://www.w3.org/2000/svg">
<g style="mix-blend-mode:darken">
<circle cx="40.6751" cy="40.0433" r="40.0433" fill="#CBF3F0" fill-opacity="0.2"/>
<path d="M30.2094 51.4718L24.2031 45.4655L26.005 43.6637L29.0081 46.6668V33.6132C29.0081 31.9048 29.6154 30.4432 30.83 29.2286C32.0446 28.014 33.5061 27.4067 35.2146 27.4067C36.923 27.4067 38.3845 28.014 39.5991 29.2286C40.8137 30.4432 41.421 31.9048 41.421 33.6132V45.2253C41.421 46.2931 41.7881 47.194 42.5222 47.9281C43.2563 48.6622 44.1572 49.0292 45.225 49.0292C46.2928 49.0292 47.1937 48.6622 47.9278 47.9281C48.6619 47.194 49.029 46.2931 49.029 45.2253V32.2117L46.0258 35.2149L44.224 33.413L50.2302 27.4067L56.2365 33.413L54.4346 35.2149L51.4315 32.2117V45.2253C51.4315 46.9337 50.8242 48.3952 49.6096 49.6098C48.395 50.8244 46.9334 51.4317 45.225 51.4317C43.5166 51.4317 42.055 50.8244 40.8404 49.6098C39.6258 48.3952 39.0185 46.9337 39.0185 45.2253V33.6132C39.0185 32.5454 38.6515 31.6445 37.9174 30.9104C37.1833 30.1763 36.2824 29.8092 35.2146 29.8092C34.1468 29.8092 33.2459 30.1763 32.5118 30.9104C31.7777 31.6445 31.4106 32.5454 31.4106 33.6132V46.6668L34.4138 43.6637L36.2156 45.4655L30.2094 51.4718Z" fill="#2EC4B6"/>
</g>
</svg>
