<?xml version="1.0" encoding="UTF-8" standalone="no"?><svg width="81" height="81" viewBox="0 0 81 81" fill="none" xmlns="http://www.w3.org/2000/svg">
<g style="mix-blend-mode:darken">
<circle cx="40.0433" cy="40.6925" r="40.0433" fill="#CBF3F0" fill-opacity="0.2"/>
<path d="M25.6279 55.1083V32.8842H32.2351V26.2771H47.852V39.4914H54.4591V55.1083H42.1658V48.5011H37.9212V55.1083H25.6279ZM28.0305 52.7057H32.2351V48.5011H28.0305V52.7057ZM28.0305 46.0985H32.2351V41.894H28.0305V46.0985ZM28.0305 39.4914H32.2351V35.2868H28.0305V39.4914ZM34.6377 46.0985H38.8422V41.894H34.6377V46.0985ZM34.6377 39.4914H38.8422V35.2868H34.6377V39.4914ZM34.6377 32.8842H38.8422V28.6797H34.6377V32.8842ZM41.2448 46.0985H45.4494V41.894H41.2448V46.0985ZM41.2448 39.4914H45.4494V35.2868H41.2448V39.4914ZM41.2448 32.8842H45.4494V28.6797H41.2448V32.8842ZM47.852 52.7057H52.0565V48.5011H47.852V52.7057ZM47.852 46.0985H52.0565V41.894H47.852V46.0985Z" fill="#2EC4B6"/>
</g>
</svg>
